<svg xmlns="http://www.w3.org/2000/svg" xmlns:xlink="http://www.w3.org/1999/xlink" viewBox="0 0 100 100" width="100px" height="100px"><defs><rect id="crNyMaEAAr5VtxYAjdGH7a" width="100" height="84.444" x="115" y="-488.867"/></defs><clipPath id="crNyMaEAAr5VtxYAjdGH7b"><use overflow="visible" xlink:href="#crNyMaEAAr5VtxYAjdGH7a"/></clipPath><g clip-path="url(#crNyMaEAAr5VtxYAjdGH7b)"><defs><rect id="crNyMaEAAr5VtxYAjdGH7c" width="1046.667" height="1486.667" x="-209.444" y="-1231.089"/></defs></g><path fill="#4343bf" d="M44.033,18l-3.605,0.345c-10.049,0.963-17.606,7.019-17.923,7.276l-0.597,0.485l-0.433,0.636 c-0.349,0.513-8.571,12.837-9.969,36.331l-0.126,2.115l1.378,1.61c9.254,10.813,23.024,11.021,23.606,11.024l2.665,0.016 l1.586-2.142l2.172-2.933c2.311,0.311,4.713,0.465,7.211,0.465c2.499,0,4.9-0.155,7.211-0.465l2.172,2.933l1.586,2.142l2.665-0.016 c0.582-0.003,14.351-0.211,23.606-11.024l1.378-1.61l-0.126-2.115c-1.398-23.494-9.62-35.818-9.969-36.331l-0.451-0.662 l-0.628-0.498c-0.334-0.265-8.299-6.5-17.972-7.246l-3.54-0.273l-1.571,3.183l-0.146,0.295c-1.336-0.103-2.739-0.158-4.215-0.158 c-1.476,0-2.879,0.055-4.215,0.158l-0.146-0.295L44.033,18L44.033,18z"/><path fill="#4b4dff" d="M74.179,29.697c0,0-6.93-5.494-15.114-6.125l-0.738,1.495c7.4,1.834,10.794,4.464,14.34,7.693 c-6.114-3.162-12.15-6.125-22.671-6.125s-16.557,2.963-22.671,6.125c3.546-3.229,7.584-6.148,14.34-7.693l-0.738-1.495 c-8.586,0.822-15.114,6.125-15.114,6.125s-7.74,11.37-9.068,33.688c7.802,9.116,19.648,9.188,19.648,9.188l2.477-3.346 c-4.205-1.481-8.954-4.125-13.057-8.904c4.894,3.752,12.28,7.656,24.182,7.656s19.289-3.905,24.182-7.656 c-4.103,4.779-8.852,7.424-13.057,8.904l2.477,3.346c0,0,11.846-0.072,19.648-9.188C81.919,41.066,74.179,29.697,74.179,29.697z"/><ellipse cx="38" cy="48" fill="#edf7f5" rx="6" ry="7"/><ellipse cx="62" cy="48" fill="#edf7f5" rx="6" ry="7"/><path fill="#ff8405" d="M16.606,63.222l-0.134,0.1l-9.309,3.379c0.323,0.444,7.156,10.891,23.628,14.087l5.761-8.461 C22.779,71.516,16.872,63.572,16.606,63.222z"/><path fill="#ff8405" d="M83.288,63.222l0.134,0.1l9.309,3.379c-0.323,0.444-7.156,10.891-23.628,14.087l-5.761-8.461 C77.115,71.516,83.022,63.572,83.288,63.222z"/></svg>