<svg xmlns="http://www.w3.org/2000/svg"  viewBox="0 0 48 48" width="48px" height="48px"><path fill="none" stroke="#000" stroke-linecap="round" stroke-linejoin="round" stroke-width="3" d="M38.5,35.5c1.5,0,2.4-1.5,1.8-2.9L38,28.1c-0.3-0.7-0.5-1.5-0.5-2.2V19c0-7.7-6.4-13.8-14.2-13.5	c-5.1,0.2-9.4,3.4-11.5,7.8"/><path fill="none" stroke="#000" stroke-linecap="round" stroke-linejoin="round" stroke-width="3" d="M10.5,21.7l0,4.1c0,0.8-0.2,1.5-0.5,2.2l-2.3,4.6C7.1,34,8,35.5,9.5,35.5h21.9"/><path fill="none" stroke="#000" stroke-linecap="round" stroke-linejoin="round" stroke-width="3" d="M26.9,40.4c-0.8,0.7-1.8,1.1-2.9,1.1c-2.5,0-4.5-2-4.5-4.5"/></svg>